<mxfile host="app.diagrams.net" modified="2023-10-11T14:48:21.106Z" agent="Mozilla/5.0 (Macintosh; Intel Mac OS X 10_15_7) AppleWebKit/537.36 (KHTML, like Gecko) Chrome/117.0.0.0 Safari/537.36 Edg/117.0.2045.55" version="22.0.4" etag="0fT5op5Bopp8HoAkJXBr" type="github">
  <diagram name="Page-1" id="yClvLonsqR_OMu8Yw1PN">
    <mxGraphModel>
      <root>
        <mxCell id="0" />
        <mxCell id="1" parent="0" />
      </root>
    </mxGraphModel>
  </diagram>
</mxfile>
